<?xml version="1.0" encoding="utf-8"?>
<!-- Generator: Adobe Illustrator 23.0.6, SVG Export Plug-In . SVG Version: 6.00 Build 0)  -->
<svg version="1.1" id="Layer_1" xmlns="http://www.w3.org/2000/svg" xmlns:xlink="http://www.w3.org/1999/xlink" x="0px" y="0px"
	 viewBox="0 0 392 111.5" style="enable-background:new 0 0 392 111.5;" xml:space="preserve">
<style type="text/css">
	.st0{fill-rule:evenodd;clip-rule:evenodd;}
	.st1{fill-rule:evenodd;clip-rule:evenodd;fill:#FFFFFF;}
	.st2{fill:#F27328;}
	.st3{fill:#FFFFFF;}
	.st4{fill:#1E1E1E;}
	.st5{fill:#1D1C1A;}
</style>
<g>
	<g>
		<g>
			<path class="st0" d="M29.5,4.4C35.2,2,41.1,0.8,47.2,0.8c6.2,0,12.1,1.2,17.7,3.6c5.5,2.3,10.3,5.6,14.5,9.8
				c4.2,4.2,7.4,9.1,9.7,14.6c2.4,5.7,3.6,11.6,3.6,17.8c0,6.2-1.2,12.2-3.6,17.8c-2.3,5.5-5.6,10.4-9.7,14.6
				c-2.7,2.7-5.6,5-8.7,6.9c0,0.1,0,0.3,0,0.5c-0.5,4.4-2.9,8.2-7.1,11.5c-3.3,2.5-7.2,4.2-11.5,5c-1.6,1.3-3.6,1.9-5.7,1.9
				c-2.2,0-4.1-0.6-5.7-1.9c-4.3-0.8-8.1-2.4-11.4-5c-4.6-3.5-7-7.7-7.2-12.6c0-0.2,0-0.4,0-0.5c-2.4-1.6-4.7-3.5-6.9-5.7
				c-4.2-4.2-7.4-9-9.7-14.6C3,58.8,1.8,52.8,1.8,46.6c0-6.2,1.2-12.1,3.6-17.8c2.3-5.5,5.5-10.3,9.7-14.6
				C19.3,10,24.1,6.8,29.5,4.4"/>
			<path class="st1" d="M62.1,46.8c-4.3-2.5-9.6-3.8-15.8-3.7c-6.2,0-11.5,1.3-15.8,3.9c-4.6,2.8-6.9,6.6-6.9,11.2v23.3
				c0.2,1.8,0.5,3.2,0.9,4.2c0.8,2.6,3,5.2,6.6,7.9l-1.5,2.8c0.1,0.1,0.3,0.3,0.4,0.4c2.4,1.9,5.2,3.2,8.1,4.1c2,0.7,5,1.1,8.3,1.1
				c3.4,0,6.4-0.4,8.4-1.1c2.9-0.8,5.6-2.2,8-4l0.7-0.5l-1.7-2.7c3.6-2.7,5.8-5.3,6.6-7.9c0.4-1,0.6-2.5,0.9-4.2V58.2
				C69.1,53.4,66.8,49.6,62.1,46.8z"/>
			<path class="st0" d="M37.1,58.7c-0.6,0.1-1.3,0.2-2.1,0.4c-1.6,0.3-2.6,0.5-3.2,0.7c-0.7,0.2-1,0.6-1.1,1c-0.1,0.3,0,0.9,0.2,1.7
				c0,0.1,0,0.1,0,0.2l10.6-2.1L40.9,58C40.3,58.1,39,58.4,37.1,58.7"/>
			<path class="st0" d="M55.5,58.3c0.6,0.1,1.3,0.2,2.1,0.4c1.6,0.3,2.6,0.5,3.2,0.7c0.7,0.2,1,0.6,1.1,1c0.1,0.3,0,0.9-0.2,1.7
				c0,0.1,0,0.1,0,0.2l-10.6-2.1l0.7-2.6C52.4,57.7,53.6,57.9,55.5,58.3"/>
			<g>
				<path class="st0" d="M36.5,84.9c2.6-1.9,5.7-2.8,9-2.8c3.6-0.1,7,0.7,9.9,2.5c0.1,0-0.1,0.3-0.4,0.7c-0.3,0.5-0.5,0.7-0.6,0.6
					c-0.9-0.9-2.9-1.6-4.2-2c-1.4-0.4-3-0.6-4.7-0.6c-3.1,0-6.1,1.7-8.2,2.8C37.2,86.2,36.9,85.8,36.5,84.9"/>
			</g>
			<path class="st0" d="M48.4,78.3c0.5-0.3,1-0.5,1.8-0.5c0.5,0,0.8,0.1,1.1,0.3c0.2,0.2,0.4,0.6,0.5,1.2c-0.1-0.3-0.6-0.4-1.5-0.4
				c-0.6,0-1.3,0.3-2.1,0.9c-0.7,0.5-1.5,0.8-2.3,0.8c-0.7,0-1.4-0.2-2.2-0.8c-0.8-0.6-1.5-0.9-2.2-0.9c-0.3,0-0.6,0-0.8,0
				c-0.4,0-0.6,0.2-0.7,0.4c0.1-1,0.6-1.5,1.5-1.5c0.7,0,1.4,0.2,1.8,0.6c0.6,0.4,1.5,0.8,2.5,0.9C46.9,79.1,47.8,78.8,48.4,78.3"/>
			<g>
				<g>
					<path class="st0" d="M60.2,72.9c0,2.5-2,4.4-4.4,4.4c-2.5,0-4.4-2-4.4-4.4c0-2.4,2-4.4,4.4-4.4C58.2,68.5,60.2,70.5,60.2,72.9z
						"/>
					<path class="st1" d="M58.9,72.9c0,1.7-1.4,3.2-3.2,3.2c-1.7,0-3.2-1.4-3.2-3.2c0-1.7,1.4-3.2,3.2-3.2
						C57.5,69.8,58.9,71.2,58.9,72.9z"/>
					<path class="st0" d="M57.5,72.9c0,1-0.8,1.7-1.7,1.7c-1,0-1.7-0.8-1.7-1.7c0-1,0.8-1.7,1.7-1.7C56.7,71.2,57.5,72,57.5,72.9z"
						/>
				</g>
			</g>
			<g>
				<g>
					<path class="st0" d="M32.6,72.9c0,2.5,2,4.4,4.4,4.4c2.5,0,4.4-2,4.4-4.4c0-2.4-2-4.4-4.4-4.4C34.6,68.5,32.6,70.5,32.6,72.9z"
						/>
					<path class="st1" d="M33.9,72.9c0,1.7,1.4,3.2,3.2,3.2c1.7,0,3.2-1.4,3.2-3.2c0-1.7-1.4-3.2-3.2-3.2
						C35.3,69.8,33.9,71.2,33.9,72.9z"/>
					<path class="st0" d="M35.3,72.9c0,1,0.8,1.7,1.7,1.7c1,0,1.7-0.8,1.7-1.7c0-1-0.8-1.7-1.7-1.7C36.1,71.2,35.3,72,35.3,72.9z"/>
				</g>
			</g>
			<g>
				<g>
					<path class="st2" d="M36.4,98.3c-0.4,0-0.8-0.1-1.1-0.2l0,0l0,0c-0.2-0.1-0.4-0.2-0.6-0.3l0,0l0,0c-0.6-0.4-0.9-1-0.9-1.6
						c0,0,0-1.9,0.1-2c1.3-4.8,3.8-9.3,12.6-9.3l0.1,0c9.6,0,11.5,5.6,12.6,10.9c0,0.1,0,0.1,0,0.4c0,0.5-0.2,1-0.6,1.4
						c-0.5,0.5-1.3,0.8-2.1,0.8l-19.9,0H36.4z"/>
					<path d="M46.5,85.3c8.9,0,11,4.6,12.2,10.6c0,0,0,0.3,0,0.4c0,1-1,1.7-2.3,1.7h0c0,0-0.1,0-0.2,0c-1.9,0-17.8,0-19.7,0
						c-0.1,0-0.2,0-0.2,0c-0.4,0-0.7-0.1-1-0.2c-0.2-0.1-0.4-0.2-0.6-0.3c-0.4-0.3-0.7-0.8-0.7-1.3c0-0.2,0.1-1.8,0.1-1.9
						c1.3-4.7,3.5-9,12.2-9C46.5,85.3,46.5,85.3,46.5,85.3 M46.5,84.5l-0.1,0c-9.1,0-11.6,4.6-13,9.6c-0.1,0.2-0.1,2.1-0.1,2.1
						c0,0.7,0.4,1.4,1.1,1.9l0.1,0l0.1,0c0.2,0.1,0.4,0.2,0.6,0.3l0.1,0l0.1,0c0.4,0.1,0.8,0.2,1.3,0.2h0.2l9.7,0l10,0h0.2
						c1,0,1.8-0.3,2.4-0.9c0.4-0.4,0.7-1,0.7-1.6v0c0-0.3,0-0.4,0-0.5C58.5,90.3,56.5,84.5,46.5,84.5z"/>
				</g>
				<g>
					<path d="M38,95.5c-0.1,0-0.1,0-0.2,0c-0.1-0.1-0.2-0.1-0.3-0.2c-0.1-0.1-0.1-0.1-0.1-0.3c0-0.1,0-1.1,0.1-1.4
						c1.1-4.1,3-6.5,8.7-6.5l0.1,0c6,0,7.7,2.7,8.7,7.7c0,0.1,0,0.1,0,0.2c0,0.1-0.1,0.2-0.2,0.3c-0.1,0.1-0.2,0.1-0.5,0.1l-16.2,0
						H38z"/>
				</g>
				<g>
					<path class="st3" d="M46.2,90.8c2.3,0,4.4,0.2,6.2,0.4c-0.9-1.8-2.5-2.7-6.2-2.7h-0.1c-3.8,0-5.4,1-6.4,2.7
						C41.7,90.9,43.9,90.8,46.2,90.8z"/>
				</g>
				<path class="st3" d="M39.6,92.4c-0.1,0.3-0.3,0.6-0.4,0.9c0,0.2,0,0.8,0,0.9c0,0.1,0,0.1,0.1,0.2c0.1,0,0.2,0.1,0.2,0.1
					c0.1,0,0.1,0,0.2,0h0.1l12.7,0c0.2,0,0.3-0.1,0.4-0.1c0.1,0,0.1-0.1,0.1-0.2c0,0,0-0.1,0-0.1c-0.2-0.6-0.3-1.2-0.6-1.7
					c-1.9-0.3-4-0.5-6.3-0.5C43.7,91.9,41.5,92.1,39.6,92.4z"/>
			</g>
		</g>
	</g>
	<g>
		<g>
			<g>
				<path class="st4" d="M64.5,85c-3.1-0.3-4.9-2.4-8.9-6.2c-4-3.7-9.3-3.3-9.3-3.3c0,0-5.2-0.5-9.3,3.3c-4,3.7-5.8,5.9-8.9,6.2
					c0,0-1.1,5-1.1,8.4c0,0,1.8,2.5,2.9,4.7c1.1,2.2,5.5,11.9,16.4,11.9l0,0l0,0c0,0,0,0,0,0l0,0c10.8,0,15.2-9.7,16.4-11.9
					c1.1-2.2,2.9-4.7,2.9-4.7C65.6,90,64.5,85,64.5,85z"/>
				<path class="st3" d="M56.7,82.6c-1.6-0.8-2.8-2-4.3-3c-1.7-1.1-3.7-1.9-5.7-2c0,0-0.1,0-0.1,0c0,0-0.1,0-0.1,0c0,0-0.1,0-0.1,0
					c0,0-0.1,0-0.1,0c-2.1,0.1-4,0.9-5.7,2c-1.5,0.9-2.8,2.2-4.3,3c-0.4,0.2,0,0.9,0.4,0.7c1.4-0.8,2.6-1.8,3.9-2.7
					c1.8-1.2,3.8-2.1,6-2.2c2.2,0.1,4.2,1,6,2.2c1.3,0.9,2.5,2,3.9,2.7C56.8,83.5,57.1,82.9,56.7,82.6z"/>
				<g>
					<g>
						<path class="st3" d="M39.3,85.8c4.3,2.4,9.9,2.2,14.2,0c1.1-0.6,0.1-2.2-1-1.7c-2.7,1.3-5.7,1.7-8.6,1.2
							c-0.9-0.2-1.8-0.4-2.7-0.8c-0.1,0-0.1,0-0.2-0.1c-0.3-0.1,0.2,0.1-0.1,0c-0.1-0.1-0.2-0.1-0.4-0.2c-0.1,0-0.2-0.1-0.3-0.1
							C39.1,83.5,38.2,85.1,39.3,85.8L39.3,85.8z"/>
					</g>
					<g>
						<path class="st3" d="M31.2,89.4c2.8,1.5,6,2.4,9,3c6.9,1.3,14,0.4,20.4-2.5c0.3-0.1,0.6-0.3,0.9-0.5c1.1-0.6,0.1-2.2-1-1.7
							c-6.1,3.1-13.1,4-19.8,2.8c-2.2-0.4-4.3-1-6.3-1.8c-0.4-0.2-0.5-0.2-0.8-0.3c-0.2-0.1-0.5-0.2-0.7-0.3
							c-0.2-0.1-0.4-0.2-0.6-0.3C31.1,87.2,30.1,88.8,31.2,89.4L31.2,89.4z"/>
					</g>
					<g>
						<path class="st3" d="M31.2,95.2c2.8,1.5,6,2.4,9,3c6.9,1.3,14,0.4,20.4-2.5c0.3-0.1,0.6-0.3,0.9-0.5c1.1-0.6,0.1-2.2-1-1.7
							c-6.1,3.1-13.1,4-19.8,2.8c-2.2-0.4-4.3-1-6.3-1.8c-0.4-0.2-0.5-0.2-0.8-0.3c-0.2-0.1-0.5-0.2-0.7-0.3
							c-0.2-0.1-0.4-0.2-0.6-0.3C31.1,93,30.1,94.6,31.2,95.2L31.2,95.2z"/>
					</g>
					<g>
						<path class="st3" d="M34.6,101.8c2.2,1.2,4.7,1.9,7.2,2.3c5.6,1,11.2,0.2,16.3-2.3c1.1-0.6,0.1-2.2-1-1.7
							c-4.6,2.3-9.9,3-15,2.1c-1.6-0.3-3.3-0.7-4.8-1.3c-0.1,0-0.2-0.1-0.4-0.1c-0.1,0-0.1,0-0.2-0.1c-0.3-0.1,0.2,0.1-0.1,0
							c-0.2-0.1-0.4-0.2-0.6-0.3c-0.2-0.1-0.3-0.2-0.5-0.2C34.5,99.6,33.5,101.2,34.6,101.8L34.6,101.8z"/>
					</g>
				</g>
			</g>
			<path class="st4" d="M46.4,110C46.4,110,46.4,110,46.4,110c3.7,0,6.6-1.1,9-2.7c-23.2-3.5-16.6-29.7-16.6-29.7v0
				c-0.6,0.4-1.1,0.8-1.7,1.3c-4,3.7-5.8,5.9-8.9,6.2c0,0-1.1,5-1.1,8.4c0,0,1.8,2.5,2.9,4.7C31.1,100.3,35.5,110,46.4,110z"/>
		</g>
	</g>
</g>
<g>
	<path class="st3" d="M105.7,97.9c-9.2-0.2-14.1-4.9-14.2-13.5c0-5.7,1.9-10.6,5.4-14.5c3.5-3.9,8.3-6,14.4-6.1h0
		c1.2,0,2.6,0,4.1,0.1c1.5,0.1,2.6,0.2,3.2,0.2c0.9,0,1.9,0,2.9,0h0c0.9,0,1.6,0.1,2.1,0.4l0.1,0.1l0.1,0.1c0.7,0.6,0.7,1.6,0.7,2.3
		c0,0.8-0.1,1.7-0.3,2.8l-2,7.2c-0.4,1.5-1.5,2.4-3.1,2.5c-0.8,0-2-0.4-2.7-2.2c-0.3-0.8-0.6-1.8-0.9-2.8c-0.1-0.5-0.2-0.9-0.4-1.3
		c-0.2-0.3-0.4-0.6-0.6-0.9c-0.2-0.3-0.5-0.4-0.9-0.6c-0.3-0.1-0.7-0.2-1.3-0.2c-1,0-1.9,0.4-2.7,1c-0.9,0.8-1.6,1.8-2.2,3.1
		c-1.3,2.8-2,5.7-2,8.6c0,1.7,0.4,2.9,1.2,3.8c0.8,0.9,1.8,1.4,3.3,1.4c1.3,0,2.3-0.3,3.1-0.8c0.9-0.5,1.6-1.1,2.1-1.7
		c0.7-0.8,1.2-1.5,1.8-2.1c0.8-0.9,1.8-1.3,2.8-1.4c0,0,0,0,0,0c1.3,0,2.6,0.8,2.6,2.9c0,0.7-0.1,1.6-0.3,2.7
		c-0.2,1.1-0.5,2.2-0.9,3.1c-0.1,0.2-0.2,0.4-0.2,0.6c-0.2,0.4-0.4,0.8-0.7,1.2c-0.7,0.7-1.6,1.3-2.9,1.8c-1.2,0.5-2.5,0.9-3.8,1.2
		C110.4,97.5,107.8,97.8,105.7,97.9L105.7,97.9L105.7,97.9L105.7,97.9z"/>
	<path class="st5" d="M111.3,65.1c1.2,0,2.5,0,4,0.1c1.5,0.1,2.6,0.2,3.3,0.2c1,0,1.9,0,2.9,0c0.6,0,1.1,0.1,1.4,0.3
		c0.2,0.2,0.3,0.7,0.3,1.4c0,0.7-0.1,1.5-0.3,2.5l-2,7.1c-0.2,1-0.9,1.5-1.9,1.6c-0.7,0-1.1-0.5-1.4-1.3c-0.3-0.8-0.6-1.7-0.9-2.7
		c-0.1-0.5-0.3-1-0.5-1.5c-0.2-0.5-0.5-0.9-0.9-1.3c-0.3-0.3-0.7-0.6-1.2-0.9c-0.5-0.2-1.1-0.3-1.8-0.3c-1.3,0-2.5,0.5-3.6,1.3
		c-1,0.9-1.9,2.1-2.6,3.5c-1.4,3-2.1,6-2.1,9.1c0,2,0.5,3.5,1.5,4.7c1,1.2,2.4,1.8,4.2,1.8c1.6,0,2.8-0.3,3.8-1c1-0.6,1.8-1.2,2.4-2
		c0.6-0.8,1.2-1.5,1.7-2.1c0.5-0.6,1.2-0.9,1.9-0.9c0.8,0,1.2,0.5,1.3,1.6c0,0.6-0.1,1.4-0.3,2.4c-0.2,1-0.4,2-0.8,2.8
		c-0.1,0.2-0.2,0.4-0.3,0.7c-0.1,0.3-0.3,0.5-0.5,0.8c-0.5,0.5-1.3,1-2.4,1.4c-1.1,0.4-2.4,0.8-3.7,1.2c-2.9,0.7-5.4,1-7.4,1.1
		c-8.5-0.2-12.8-4.3-12.9-12.3c0-5.4,1.7-9.9,5.1-13.6C101.1,67.1,105.6,65.2,111.3,65.1 M111.3,62.5L111.3,62.5L111.3,62.5
		c-6.4,0.1-11.6,2.3-15.3,6.5c-3.8,4.1-5.7,9.3-5.7,15.3c0.1,9.4,5.6,14.6,15.5,14.8h0h0c2.2,0,4.8-0.4,7.9-1.1l0,0l0,0
		c1.4-0.4,2.8-0.8,4-1.3c1.5-0.6,2.6-1.2,3.3-2l0,0l0,0c0.4-0.4,0.7-0.9,0.9-1.4l0-0.1l0-0.1c0.1-0.2,0.2-0.4,0.2-0.6
		c0.4-1,0.7-2.1,0.9-3.3c0.2-1.1,0.3-2.1,0.3-2.8v0v0c-0.1-2.9-2-4.1-3.8-4.1h-0.1l-0.1,0c-1.4,0.1-2.7,0.7-3.7,1.8l0,0l0,0
		c-0.5,0.6-1.1,1.3-1.8,2.2c-0.4,0.6-1,1-1.6,1.4l-0.1,0l-0.1,0c-0.5,0.4-1.3,0.5-2.4,0.5c-1.4,0-1.9-0.5-2.3-0.9l0,0l0,0
		c-0.6-0.7-0.9-1.6-0.9-3c0-2.7,0.6-5.4,1.9-8c0.5-1.1,1.2-2,1.9-2.7c0.6-0.5,1.2-0.7,1.9-0.7c0.4,0,0.6,0.1,0.8,0.1
		c0.2,0.1,0.3,0.2,0.3,0.2l0,0l0,0c0.2,0.2,0.3,0.3,0.4,0.6c0.2,0.3,0.3,0.7,0.3,1l0,0l0,0c0.3,1.1,0.6,2.1,0.9,3
		c0.9,2.6,2.9,2.9,3.7,3l0.1,0l0.1,0c2.1-0.1,3.8-1.4,4.3-3.5l2-7.1l0-0.1l0-0.1c0.2-1.1,0.3-2.1,0.3-3c0-0.5,0-2.2-1.1-3.2
		l-0.2-0.2l-0.3-0.2c-0.7-0.4-1.6-0.6-2.7-0.6h0l0,0c-0.9,0-1.9,0-2.8,0c-0.4,0-1.3,0-3.1-0.2C113.9,62.6,112.5,62.5,111.3,62.5
		L111.3,62.5z"/>
	<path class="st3" d="M142.4,97.5c-0.9,0-1.6-0.3-2.1-0.8c-0.3-0.3-0.7-0.9-0.7-1.9c0-0.6,0.1-1.5,0.3-2.7l1.5-8.2
		c0.2-0.8,0.2-1.6,0.3-2.3c0,0,0-0.1,0-0.1c0,0-0.1,0-0.2,0c-0.6,0-1.4,0.2-2.2,0.6c-0.7,0.3-1.3,0.7-1.5,1.1
		c-0.2,0.5-0.4,1-0.5,1.5l-1.9,10c0,0.4-0.2,0.9-0.5,1.3c-0.4,0.6-1,0.9-1.8,0.9h-7.3c-1.2,0-2-0.8-2.1-1.9c0-0.5,0.1-1.4,0.6-4.8
		l2.6-16.3c0.3-1.5,0.3-2.2,0.3-2.4c0-0.1,0-0.2,0-0.3c-0.1,0-0.5-0.1-1.2-0.1c-0.6,0-1.1-0.1-1.7-0.3c-1-0.3-1.6-1.1-1.6-2.1
		c0-1.2,0.7-2.2,2-3.1c1-0.6,2.2-1.2,3.7-1.7c3-0.9,5.7-1.3,8.2-1.4l0,0c0.8,0,1.5,0.1,2.1,0.3c0.7,0.3,1.4,1,1.5,2.4
		c0,0.8-0.1,1.8-0.3,3l-1.2,6.7c0.4-0.3,0.8-0.6,1.2-0.9c1-0.7,2.2-1.4,3.4-2c1.3-0.6,2.7-0.9,4-0.9c4.1,0.1,6.3,2.4,6.4,6.5
		c0,1.9-0.3,3.8-0.8,5.6c-0.4,1.4-0.6,2.7-0.7,3.8c0,0,0.2-0.1,0.2-0.1l0.1,0c0.5-0.2,0.9-0.2,1.3-0.2c0.8,0,1.4,0.4,1.7,1.1l0,0.1
		l0,0.1c0.1,0.3,0.1,0.7,0.1,1c0,1.3-0.6,2.4-1.7,3.5c-0.9,0.9-2.1,1.8-3.5,2.5C147.6,96.7,144.8,97.5,142.4,97.5L142.4,97.5
		L142.4,97.5L142.4,97.5z"/>
	<path class="st5" d="M136.8,64.1c0.6,0,1.2,0.1,1.6,0.3c0.4,0.2,0.6,0.6,0.6,1.3c0,0.7-0.1,1.6-0.3,2.8l-1.2,6.9
		c-0.2,1-0.3,1.8-0.3,2.2c0,0.3,0.1,0.5,0.2,0.5c0.1,0,0.5-0.3,1.1-0.8c0.6-0.5,1.4-1.1,2.3-1.8c1-0.7,2-1.3,3.2-1.9
		c1.1-0.5,2.3-0.8,3.5-0.8c3.3,0.1,5,1.8,5.1,5.2c0,1.8-0.3,3.5-0.8,5.2c-0.5,1.7-0.7,3.3-0.8,4.6c0,0.6,0.2,0.9,0.8,0.9
		c0.4,0,0.8-0.1,1.2-0.3c0.4-0.1,0.7-0.2,0.9-0.2c0.2,0,0.4,0.1,0.5,0.3c0.1,0.2,0.1,0.4,0.1,0.7c0,0.9-0.5,1.7-1.3,2.6
		c-0.8,0.8-1.9,1.6-3.2,2.3c-2.8,1.4-5.3,2.1-7.5,2.2c-1,0-1.5-0.5-1.5-1.4c0-0.6,0.1-1.4,0.3-2.5l1.5-8.2c0.2-0.9,0.3-1.7,0.3-2.5
		c0-0.9-0.5-1.4-1.5-1.4c-0.8,0-1.7,0.2-2.8,0.7c-1,0.4-1.7,1-2.1,1.6c-0.3,0.6-0.5,1.2-0.6,1.9l-1.9,10.1c0,0.3-0.1,0.6-0.3,0.8
		c-0.2,0.3-0.4,0.4-0.7,0.4h-7.3c0,0-0.1,0-0.1,0c-0.5,0-0.7-0.2-0.7-0.7c0-0.6,0.2-2.1,0.6-4.5l2.6-16.3c0.2-1.3,0.3-2.1,0.3-2.6
		c0-0.6-0.1-1-0.4-1.3c-0.3-0.3-1-0.4-2-0.4c-0.5,0-0.9-0.1-1.3-0.2c-0.4-0.1-0.7-0.4-0.7-0.9c0-0.7,0.5-1.4,1.4-2
		c0.9-0.6,2-1.1,3.4-1.5C131.8,64.5,134.4,64.1,136.8,64.1 M136.8,61.5L136.8,61.5L136.8,61.5c-2.6,0-5.5,0.5-8.6,1.4
		c-1.6,0.5-3,1.1-4.1,1.8c-2.1,1.4-2.6,3-2.6,4.2c0,1.6,1,2.9,2.5,3.3c0.6,0.2,1.2,0.3,1.9,0.3c0,0.3-0.1,0.7-0.2,1.3l0,0l0,0
		l-2.6,16.3c-0.6,3.4-0.7,4.4-0.7,4.9v0.1l0,0.1c0.1,1.8,1.5,3.1,3.3,3.1c0,0,0.1,0,0.1,0h7.2c1.2,0,2.2-0.5,2.8-1.5
		c0.4-0.6,0.6-1.2,0.7-1.9l1.9-10c0.1-0.4,0.2-0.8,0.4-1.1c0.1-0.1,0.3-0.3,0.9-0.5c0.2-0.1,0.3-0.1,0.5-0.2c0,0.2-0.1,0.4-0.1,0.5
		l-1.5,8.2c-0.2,1.2-0.3,2.2-0.3,2.9c0,1.4,0.5,2.3,1,2.8c0.5,0.5,1.4,1.2,3,1.2l0.1,0l0.1,0c2.6-0.1,5.5-0.9,8.6-2.5
		c1.6-0.8,2.9-1.7,3.9-2.8c1.3-1.3,2-2.7,2.1-4.3l0,0v0c0-0.5-0.1-0.9-0.2-1.4l0-0.2l-0.1-0.2c-0.5-1.2-1.6-1.9-2.9-1.9
		c0,0-0.1,0-0.1,0c0.1-0.6,0.3-1.2,0.4-1.8c0.5-1.9,0.8-3.9,0.9-5.8v0v0c-0.1-4.8-2.9-7.7-7.6-7.7h-0.1h-0.1c-1.5,0-3,0.4-4.5,1l0,0
		l0,0c-0.8,0.4-1.5,0.8-2.2,1.2l0.6-3.6c0.2-1.4,0.3-2.4,0.3-3.2v-0.1l0-0.1c-0.1-2.2-1.3-3.1-2.1-3.5l-0.1,0l-0.1,0
		C138.6,61.6,137.7,61.5,136.8,61.5L136.8,61.5z"/>
	<path class="st3" d="M159.3,97.5c-2,0-3.1-1.2-3.1-3.1c0-0.6,0.1-1.5,0.3-2.8l1.6-8.9c0.2-1,0.3-1.6,0.3-2c-0.1,0-0.3,0-0.5,0
		c-1,0-1.7-0.2-2.2-0.5c-0.4-0.3-0.9-0.9-0.9-2.1c0-0.7,0.2-1.4,0.7-2c0.4-0.5,0.8-0.9,1.3-1.3c1.1-0.8,2.3-1.4,3.8-1.9
		c0.8-0.3,1.5-0.5,2.1-0.7c-1-0.1-1.8-0.5-2.3-1c-0.6-0.6-0.9-1.5-0.9-2.6c0-1,0.3-2,0.8-2.9c0.5-0.8,1.1-1.4,1.8-2
		c1.6-1.1,3.3-1.6,5.1-1.6c1.4,0,2.5,0.4,3.2,1.2l0.1,0.1l0,0.1c0.5,0.8,0.8,1.7,0.8,2.7c0,1.7-0.7,3.2-2.2,4.4
		c-0.4,0.3-0.7,0.5-1.2,0.8c2,0,3.2,1.3,3.2,3.3c0,0.5-0.1,1.3-0.2,2.3l-1.5,8.1c-0.1,0.9-0.2,1.4-0.2,1.7c0.5-0.3,1.1-0.5,1.6-0.5
		c0.7,0,1.3,0.3,1.7,0.9c0.3,0.4,0.5,1,0.5,1.7c0,1-0.5,2-1.5,3.1c-0.8,0.9-1.9,1.8-3.3,2.6C165.5,96.5,162.5,97.4,159.3,97.5
		L159.3,97.5L159.3,97.5L159.3,97.5z"/>
	<path class="st5" d="M167.1,63.6c1.1,0,1.8,0.3,2.3,0.8c0.4,0.6,0.6,1.2,0.6,2c0,1.3-0.6,2.4-1.7,3.4c-1.2,0.9-2.7,1.4-4.8,1.4
		c-1.9,0-2.8-0.8-2.8-2.4c0-0.8,0.2-1.5,0.6-2.2c0.4-0.6,0.9-1.2,1.5-1.6C164.1,64,165.6,63.6,167.1,63.6 M167.9,72.8
		c1.2,0,1.9,0.7,1.9,2.1c0,0.4-0.1,1.1-0.2,2.1l-1.5,8c-0.2,1.2-0.3,1.9-0.3,2.3c0,0.7,0.3,1.1,0.8,1.1c0,0,0,0,0.1,0
		c0.4,0,0.7-0.1,1.1-0.3c0.3-0.2,0.7-0.3,1-0.3c0.3,0,0.5,0.1,0.7,0.4c0.2,0.2,0.2,0.5,0.2,0.9c0,0.7-0.4,1.4-1.1,2.2
		c-0.7,0.8-1.7,1.6-3,2.4c-2.6,1.7-5.4,2.5-8.3,2.6c-1.3,0-1.9-0.6-1.9-1.8c0-0.5,0.1-1.3,0.3-2.5l1.6-8.8c0.2-1.2,0.3-2,0.3-2.5
		c0-0.5-0.2-0.8-0.5-0.9c-0.3-0.1-0.8-0.1-1.4-0.1c-0.7,0-1.2-0.1-1.4-0.3c-0.3-0.2-0.4-0.5-0.4-1c0-0.4,0.1-0.8,0.4-1.2
		c0.3-0.4,0.6-0.7,1.1-1c0.9-0.7,2.1-1.3,3.5-1.7C163.8,73.3,166.2,72.8,167.9,72.8C167.9,72.8,167.9,72.8,167.9,72.8 M167.1,61
		L167.1,61c-2.1,0-4,0.6-5.8,1.8l0,0l0,0c-0.9,0.6-1.6,1.4-2.2,2.3c-0.7,1.1-1,2.3-1,3.6c0,1.6,0.6,2.7,1.2,3.4
		c-1.3,0.5-2.4,1.1-3.4,1.8c-0.6,0.5-1.1,1-1.5,1.5l0,0l0,0c-0.6,0.8-0.9,1.8-0.9,2.7c0,1.7,0.9,2.7,1.5,3.1c0.6,0.5,1.4,0.7,2,0.7
		c0,0.2-0.1,0.3-0.1,0.5l-1.6,8.8c-0.2,1.4-0.4,2.3-0.4,3c0,2.6,1.7,4.4,4.4,4.4l0.1,0l0.1,0c3.4-0.1,6.6-1.1,9.6-3
		c1.4-0.9,2.7-1.8,3.6-2.8c1.1-1.3,1.8-2.6,1.8-3.9V89V89c0-0.9-0.2-1.7-0.7-2.4c-0.6-0.9-1.7-1.5-2.8-1.5c0,0,0,0-0.1,0l1.4-7.8
		l0,0l0,0c0.2-1.1,0.2-1.9,0.2-2.4c0-1.7-0.7-3-1.8-3.8c1.2-1.3,1.9-2.9,1.9-4.6c0-1.3-0.4-2.5-1-3.4l-0.1-0.1l-0.1-0.1
		C170.3,61.6,169,61.1,167.1,61L167.1,61L167.1,61z"/>
	<path class="st3" d="M175.6,97.5c-0.9,0-1.7-0.3-2.3-0.9c-0.7-0.5-1-1.4-1-2.7c0-0.5,0.1-1,0.2-1.8c0.1-0.6,0.3-1.3,0.4-2.1
		l2.3-13.4c0.2-1.5,0.3-2.2,0.4-2.6c-0.2,0-0.5,0-0.7,0c-1.5,0-2.5-1-2.5-2.4c0-1.4,0.6-2.6,1.8-3.8c1-1,2.3-1.8,3.7-2.6
		c3.2-1.6,5.8-2.4,8-2.4c1.9,0,3,1.3,3,3.2c0,0.3,0,1-0.4,2.9l-3.1,17.5c-0.1,0.4-0.2,0.8-0.2,1.2l0,0.1l0,0.1
		c-0.1,0.2-0.1,0.4-0.1,0.4c0.9,0,1.8,0,2.5,0h0c1.3,0,2.6,0.7,2.7,2.8c0,1.2-0.6,2.2-1.7,3c-0.9,0.7-2,1.3-3.5,1.9
		C182.1,97,179,97.5,175.6,97.5L175.6,97.5L175.6,97.5L175.6,97.5z"/>
	<path class="st5" d="M185.9,64.1c1.1,0,1.7,0.7,1.7,1.9c0,0.5-0.1,1.4-0.3,2.7l-3.1,17.5c-0.1,0.4-0.2,0.8-0.2,1.2
		c-0.1,0.4-0.2,0.7-0.2,0.9c0,0.8,0.3,1.2,0.9,1.2c0,0,0,0,0.1,0c1,0,2,0,2.8,0c0.9,0,1.3,0.5,1.4,1.5c0,0.7-0.4,1.4-1.2,2
		c-0.8,0.6-1.8,1.2-3.1,1.7c-2.7,1-5.7,1.5-8.9,1.6c-0.6,0-1-0.2-1.4-0.5c-0.4-0.3-0.6-0.9-0.6-1.7c0-0.4,0.1-0.9,0.2-1.5
		c0.1-0.6,0.3-1.3,0.4-2.2l2.3-13.4c0.2-1.4,0.4-2.3,0.4-2.8c0-0.6-0.2-1-0.6-1.1c-0.4-0.1-0.9-0.2-1.4-0.2c-0.8,0-1.2-0.4-1.2-1.2
		c0-1,0.5-1.9,1.4-2.9c0.9-0.9,2.1-1.7,3.4-2.4C181.4,64.9,183.9,64.1,185.9,64.1 M185.9,61.5L185.9,61.5c-2.4,0-5.2,0.9-8.6,2.5
		l0,0l0,0c-1.5,0.8-2.9,1.7-4,2.8c-1.5,1.5-2.3,3-2.3,4.7v0l0,0c0.1,1.9,1.3,3.3,3.1,3.6c0,0.3-0.1,0.7-0.2,1.2l-2.3,13.4
		c-0.1,0.8-0.3,1.5-0.4,2.1c-0.2,0.9-0.3,1.6-0.3,2.1c0,2,0.8,3.1,1.5,3.7c0.8,0.7,1.9,1.1,3.1,1.1c3.5,0,6.8-0.6,9.8-1.7
		c1.6-0.6,2.8-1.3,3.8-2.1c1.8-1.4,2.2-2.9,2.2-4v0v0c-0.1-2.4-1.7-4-4-4h0l0,0c-0.3,0-0.6,0-0.9,0c0-0.1,0-0.2,0-0.2l3.2-17.5
		c0.3-2,0.4-2.8,0.4-3.2C190.2,63.4,188.5,61.6,185.9,61.5L185.9,61.5L185.9,61.5z"/>
	<path class="st3" d="M192.1,97.5c-0.9,0-1.7-0.3-2.3-0.9c-0.7-0.5-1-1.4-1-2.7c0-0.5,0.1-1,0.2-1.8c0.1-0.6,0.3-1.3,0.4-2.1
		l2.3-13.4c0.2-1.5,0.3-2.2,0.4-2.6c-0.2,0-0.4,0-0.7,0c-1.5,0-2.5-1-2.5-2.4c0-1.4,0.6-2.6,1.8-3.8c1-1,2.3-1.8,3.7-2.6
		c3.2-1.6,5.8-2.4,8-2.4c1.9,0,3,1.3,3,3.2c0,0.3,0,1-0.4,2.9l-3.1,17.5c-0.1,0.4-0.2,0.8-0.2,1.2l0,0.1l0,0.1
		c-0.1,0.2-0.1,0.4-0.1,0.4c0.9,0,1.8,0,2.5,0l0,0c1.3,0,2.7,0.7,2.7,2.8c0,1.2-0.6,2.2-1.7,3c-0.9,0.7-2.1,1.3-3.5,1.9
		C198.6,97,195.5,97.5,192.1,97.5L192.1,97.5L192.1,97.5L192.1,97.5z"/>
	<path class="st5" d="M202.4,64.1c1.1,0,1.7,0.7,1.7,1.9c0,0.5-0.1,1.4-0.3,2.7l-3.1,17.5c-0.1,0.4-0.2,0.8-0.2,1.2
		c-0.1,0.4-0.2,0.7-0.2,0.9c0,0.8,0.3,1.2,0.9,1.2c0,0,0,0,0.1,0c1,0,2,0,2.8,0c0.9,0,1.4,0.5,1.4,1.5c0,0.7-0.4,1.4-1.2,2
		c-0.8,0.6-1.8,1.2-3.1,1.7c-2.7,1-5.7,1.5-8.9,1.6c-0.6,0-1-0.2-1.4-0.5c-0.4-0.3-0.6-0.9-0.6-1.7c0-0.4,0.1-0.9,0.2-1.5
		c0.1-0.6,0.3-1.3,0.4-2.2l2.3-13.4c0.2-1.4,0.4-2.3,0.4-2.8c0-0.6-0.2-1-0.6-1.1c-0.4-0.1-0.9-0.2-1.4-0.2c-0.8,0-1.2-0.4-1.2-1.2
		c0-1,0.5-1.9,1.4-2.9c0.9-0.9,2.1-1.7,3.4-2.4C197.9,64.9,200.4,64.1,202.4,64.1 M202.4,61.5L202.4,61.5c-2.4,0-5.2,0.9-8.6,2.5
		l0,0l0,0c-1.5,0.8-2.9,1.7-4,2.8c-1.5,1.5-2.2,3-2.2,4.7v0l0,0c0.1,1.9,1.3,3.3,3.1,3.6c0,0.3-0.1,0.7-0.2,1.2l-2.3,13.4
		c-0.1,0.8-0.3,1.5-0.4,2.1c-0.2,0.9-0.3,1.6-0.3,2.1c0,2,0.8,3.1,1.5,3.7c0.8,0.7,1.9,1.1,3.1,1.1c3.5,0,6.8-0.6,9.8-1.7
		c1.6-0.6,2.8-1.3,3.8-2.1c1.8-1.4,2.2-2.9,2.2-4v0v0c-0.1-2.4-1.6-4.1-3.9-4.1h0l0,0c-0.3,0-0.6,0-0.9,0c0-0.1,0-0.2,0-0.2
		l3.2-17.5c0.3-2,0.4-2.8,0.4-3.2C206.7,63.4,205,61.6,202.4,61.5L202.4,61.5L202.4,61.5z"/>
	<path class="st3" d="M214.4,97.5c-8.7-0.1-10.5-5.5-10.5-10c0-4.3,1.6-8,4.8-11.2c3.1-3.2,7.3-4.8,12.7-4.9
		c8.7,0.1,10.5,5.5,10.5,10c0,4.2-1.4,8-4.2,11.1C224.7,95.8,220.2,97.4,214.4,97.5L214.4,97.5C214.4,97.5,214.4,97.5,214.4,97.5z
		 M219.6,78.2c-0.2,0.1-0.4,0.3-0.7,0.9c-0.3,0.4-0.5,1-0.7,1.6c-0.3,0.7-0.5,1.3-0.7,2c-0.9,3.2-1.4,5.8-1.4,7.7c0,0.1,0,0.2,0,0.3
		c0.1,0,0.1-0.1,0.2-0.2c0.2-0.2,0.5-0.5,0.7-1c0.2-0.5,0.5-1.1,0.8-1.8c0.2-0.6,0.4-1.3,0.6-2c0.8-3.4,1.3-5.8,1.3-7.2
		C219.7,78.5,219.6,78.4,219.6,78.2z"/>
	<path class="st5" d="M221.4,72.8c6.2,0.1,9.2,3,9.2,8.7c0,4-1.3,7.4-3.9,10.3c-2.7,3-6.7,4.5-12.2,4.6c-6.2-0.1-9.2-3-9.2-8.7
		c0-3.9,1.5-7.4,4.4-10.3C212.5,74.4,216.4,72.8,221.4,72.8 M216,92.1c0.4,0,0.8-0.2,1.2-0.5c0.3-0.3,0.6-0.7,0.9-1.3
		c0.3-0.6,0.5-1.2,0.8-1.9c0.3-0.7,0.5-1.4,0.7-2.1c0.9-3.5,1.3-6,1.3-7.5c0-1.2-0.4-1.9-1.2-1.9c0,0-0.1,0-0.1,0
		c-0.7,0-1.4,0.6-1.9,1.6c-0.3,0.5-0.5,1-0.8,1.7c-0.3,0.7-0.5,1.4-0.7,2.2c-0.9,3.3-1.4,6-1.4,8.1c0,0.4,0.1,0.8,0.3,1.1
		C215.3,91.9,215.6,92.1,216,92.1 M221.4,70.2L221.4,70.2c-5.7,0.1-10.3,1.9-13.6,5.3c-3.4,3.4-5.1,7.4-5.1,12
		c-0.1,7.2,4.1,11.2,11.7,11.3l0,0l0,0c6.2-0.1,11-1.9,14.1-5.4c3-3.4,4.6-7.4,4.6-12C233.2,74.3,229,70.3,221.4,70.2L221.4,70.2
		L221.4,70.2z"/>
	<path class="st3" d="M250.6,97.5c-1.3,0-1.9-0.5-2.1-1c-0.3-0.4-0.5-1-0.5-1.8c0-0.8,0.1-1.5,0.1-2.1c-0.5,0.4-1.1,0.9-1.7,1.4
		c-1.2,0.9-2.5,1.6-3.9,2.3c-1.5,0.7-3.1,1.1-4.8,1.1c0,0,0,0,0,0c-1.6,0-2.7-0.4-3.5-1.2c-0.7-0.8-1.1-1.9-1.1-3.3
		c0-0.8,0.1-1.7,0.2-2.7l1.1-9.1c0.1-0.6,0.1-1.2,0.1-1.6c0,0-0.2-0.1-0.5-0.1c0,0,0,0,0,0c-0.8,0-1.4-0.1-1.9-0.3
		c-0.9-0.3-1.5-1.1-1.5-2.1c0-0.8,0.3-2.1,1.8-3c0.9-0.6,2.1-1.1,3.4-1.5c2.7-0.7,5.5-1.1,8.3-1.1c1.2,0,1.8,0.1,2.3,0.4l0.2,0.1
		l0.1,0.1c0.4,0.5,0.6,1.1,0.6,1.9c0,0.5-0.1,1.3-0.3,2.5l-1.3,7.7c-0.2,1.2-0.3,2.1-0.3,2.7c0.6-0.1,1-0.2,1.5-0.5
		c0.6-0.4,1.1-0.9,1.5-1.5c1.1-1.9,1.3-2.5,1.3-2.6l1.6-8.6c0.1-1.1,1-1.8,2.2-1.8h7.4c0.9,0,1.9,0.6,2,2c0,0.3,0,0.7-0.1,1.2
		c-0.1,0.5-0.2,1.1-0.3,1.7l-1.4,8.8c-0.1,0.6-0.2,1.1-0.2,1.5c0.5-0.3,1-0.5,1.5-0.5l0.1,0l0.1,0c1.1,0,2.3,0.7,2.3,2.6
		c0,0.5-0.1,1-0.4,1.5c-0.3,0.5-0.7,1-1.2,1.4c-0.8,0.8-1.8,1.7-3.2,2.6c-1.3,0.8-2.8,1.5-4.3,2.1C253.8,97.2,252.2,97.5,250.6,97.5
		L250.6,97.5L250.6,97.5L250.6,97.5z"/>
	<path class="st5" d="M243.9,72.8c0.9,0,1.4,0.1,1.6,0.2c0.2,0.2,0.3,0.5,0.2,1c0,0.5-0.1,1.3-0.2,2.3l-1.3,7.7
		c-0.2,1.4-0.3,2.4-0.3,3c0,0.8,0.3,1.2,0.9,1.2c1,0,1.9-0.3,2.6-0.8c0.7-0.5,1.3-1.1,1.8-1.8c0.9-1.5,1.4-2.6,1.5-3.2l1.5-8.5
		c0.1-0.5,0.4-0.7,0.9-0.7h7.4c0.4,0,0.7,0.3,0.7,0.8c0,0.2,0,0.5-0.1,0.9c-0.1,0.4-0.2,1-0.3,1.7l-1.4,8.8
		c-0.2,0.8-0.3,1.5-0.3,2.1c0,0.7,0.3,1,0.9,1.1c0.3,0,0.7-0.1,1-0.3c0.3-0.2,0.7-0.3,1-0.4c0.7,0,1,0.5,1,1.3
		c0,0.3-0.1,0.6-0.3,0.9c-0.2,0.3-0.5,0.7-0.9,1.1c-0.7,0.8-1.7,1.6-3,2.4c-1.2,0.8-2.6,1.4-4,2c-1.5,0.5-2.9,0.8-4.4,0.9
		c-0.5,0-0.9-0.1-1.1-0.4c-0.2-0.3-0.3-0.6-0.3-1.1c0.1-1.9,0.2-3.3,0.3-4.2c0-0.4,0-0.6-0.1-0.6c0,0,0,0,0,0
		c-0.1,0-0.5,0.3-1.2,0.9c-0.7,0.6-1.6,1.3-2.7,2.2c-1.1,0.8-2.3,1.5-3.7,2.2c-1.4,0.6-2.8,1-4.3,1c-1.2,0-2-0.3-2.5-0.8
		c-0.5-0.5-0.7-1.3-0.7-2.4c0-0.7,0.1-1.6,0.2-2.6l1.1-9.1c0.1-0.7,0.1-1.3,0.1-1.8c0-0.4-0.2-0.7-0.5-1c-0.3-0.2-0.7-0.4-1.3-0.4
		c-0.7,0-1.2-0.1-1.6-0.2c-0.5-0.2-0.7-0.5-0.7-0.9c0-0.8,0.4-1.4,1.2-2c0.8-0.5,1.8-1,3-1.3C238.6,73.1,241.2,72.8,243.9,72.8
		 M243.9,70.2c-2.9,0-5.8,0.4-8.6,1.1c-1.5,0.4-2.8,1-3.8,1.7c-2.1,1.4-2.4,3.2-2.4,4.1c0,1.6,0.9,2.8,2.4,3.4
		c0.4,0.2,0.9,0.3,1.5,0.3c0,0.1,0,0.2,0,0.3l-1.1,9.1c-0.1,1.1-0.2,2-0.2,2.9c0,1.8,0.5,3.2,1.4,4.2c1,1.1,2.5,1.7,4.4,1.7
		c1.9,0,3.7-0.5,5.4-1.3c1.3-0.6,2.6-1.3,3.7-2.1c0.1,0.7,0.3,1.4,0.7,1.9c0.4,0.6,1.3,1.5,3.2,1.5c1.8,0,3.5-0.4,5.3-1
		c1.6-0.6,3.1-1.3,4.5-2.2c1.4-0.9,2.6-1.8,3.4-2.8c0.6-0.5,1-1.1,1.3-1.6l0-0.1l0-0.1c0.4-0.7,0.5-1.4,0.5-2c0-2.6-1.8-3.8-3.5-3.9
		l-0.2,0l1.3-8.2c0.1-0.6,0.2-1.2,0.3-1.6l0-0.1l0-0.1c0.1-0.6,0.1-1,0.1-1.3v-0.1l0-0.1c-0.1-1.9-1.4-3.2-3.3-3.2h-7.4
		c-1.8,0-3.2,1.2-3.4,2.9l-1.5,8.4l0,0.1l0,0.1c0,0.1-0.2,0.7-1.1,2.1c-0.1,0.1-0.2,0.2-0.2,0.3c0,0,0-0.1,0-0.1l1.3-7.7
		c0.2-1.2,0.3-2.1,0.3-2.7c0.1-1.4-0.5-2.3-0.9-2.8l-0.3-0.3l-0.3-0.2C246.2,70.4,245.3,70.2,243.9,70.2L243.9,70.2z"/>
	<path class="st3" d="M269.1,97.5c-1.9,0-3.2-0.5-4.1-1.4c-0.8-0.8-1.1-1.8-1.1-3.1c0-0.9,0.1-1.9,0.4-3.3c0,0,1.8-11,1.8-11.1h-1
		c-0.7,0-1.1-0.3-1.3-0.5c-0.2-0.3-0.5-0.7-0.5-1.4c0-0.4,0.1-1,0.3-1.8c0.2-0.6,0.4-1.1,0.6-1.5l0-0.1l0-0.1
		c0.4-0.8,1.2-1.3,2.1-1.3h0.8l0.2-1.2c0.1-0.5,0.3-0.9,0.5-1.2c0.2-0.4,0.7-1,1.8-1c1-0.1,2.5-0.4,4.4-0.7c1.9-0.2,3-0.4,3.4-0.4
		l0.1,0l0.1,0c1.1,0.1,1.9,0.9,1.8,2.1c0,0.4-0.1,0.9-0.2,1.7c-0.1,0.3-0.1,0.5-0.1,0.7h2c1.1,0,2,0.8,2,1.9c0,0.4-0.1,0.9-0.2,1.7
		c-0.1,0.7-0.3,1.2-0.4,1.5c-0.2,1-1,1.6-2.1,1.6l-0.2,0h-2.5c-0.1,0.3-0.2,0.7-0.3,1.5c-0.2,0.9-0.3,1.9-0.5,2.9
		c-0.5,2.5-0.6,3.7-0.6,4.3c0.1,0,0.3-0.1,0.4-0.1l0.1,0l0.1,0c0.3-0.1,0.6-0.3,0.9-0.4c0.9-0.6,1.8-1,2.7-1h0c0.8,0,1.5,0.2,2,0.7
		l0.1,0.1c0.5,0.6,0.8,1.3,0.8,2.1c0,1-0.5,2.1-1.4,3.2c-0.8,0.9-1.9,1.9-3.2,2.7c-2.7,1.9-5.9,2.9-9.4,3L269.1,97.5z"/>
	<path class="st5" d="M277.5,68.7c0.4,0,0.6,0.3,0.6,0.7c0,0.4-0.1,0.9-0.2,1.6c-0.1,0.7-0.2,1.2-0.2,1.6c0,0.4,0.1,0.6,0.5,0.6h2.9
		c0.4,0,0.7,0.2,0.7,0.6c0,0.3-0.1,0.8-0.2,1.5c-0.1,0.7-0.3,1.2-0.4,1.4c-0.1,0.4-0.4,0.7-0.9,0.7c0,0-0.1,0-0.1,0h-2.8
		c-0.5,0-0.8,0.3-0.9,0.7c-0.1,0.3-0.2,0.9-0.4,1.8c-0.2,0.9-0.3,1.9-0.5,2.9c-0.4,2.3-0.6,3.8-0.7,4.7c0,0.8,0.3,1.2,1,1.2
		c0,0,0.1,0,0.1,0c0.4,0,0.8-0.1,1.2-0.3c0.4-0.1,0.8-0.3,1.2-0.6c0.7-0.5,1.4-0.8,2.1-0.8c0.4,0,0.8,0.1,1.1,0.4
		c0.3,0.3,0.4,0.7,0.4,1.2c0,0.7-0.4,1.5-1.1,2.4c-0.7,0.8-1.7,1.7-2.9,2.5c-2.5,1.8-5.4,2.7-8.7,2.8c-0.1,0-0.1,0-0.2,0
		c-2.7,0-4-1.1-4-3.2c0-0.8,0.1-1.8,0.3-3.1l1.8-10.8c0.1-0.6,0.2-1.1,0.2-1.2c0-0.4-0.2-0.6-0.6-0.6H265c-0.4,0-0.5-0.2-0.5-0.6
		c0-0.4,0.1-0.9,0.3-1.5c0.2-0.6,0.4-1,0.6-1.5c0.2-0.4,0.5-0.6,1-0.6h1.3c0.4,0,0.6-0.2,0.6-0.6l0.3-1.6c0.1-0.3,0.2-0.6,0.3-0.8
		c0.1-0.2,0.4-0.4,0.8-0.4c1.1-0.2,2.6-0.4,4.5-0.7C276,68.9,277.1,68.7,277.5,68.7 M277.5,66.1l-0.2,0c-0.3,0-0.9,0.1-3.5,0.4l0,0
		l0,0c-1.9,0.3-3.3,0.5-4.4,0.7c-1.6,0.2-2.3,1.1-2.7,1.6l0,0l0,0c-0.2,0.4-0.4,0.9-0.6,1.5l0,0.1l0,0.1l0,0.1c-1.3,0.1-2.3,0.8-3,2
		l-0.1,0.1l-0.1,0.1c-0.2,0.4-0.4,0.9-0.6,1.5l0,0.1l0,0.1c-0.3,0.8-0.4,1.5-0.4,2.2c0,0.9,0.2,1.7,0.8,2.3c0.5,0.5,1.1,0.8,1.8,0.9
		l-1.6,9.6c-0.3,1.4-0.4,2.6-0.4,3.5c0,2,0.8,3.3,1.5,4c1.2,1.2,2.9,1.8,5.1,1.8l0.2,0c3.8-0.1,7.2-1.2,10.1-3.2
		c1.4-0.9,2.5-1.9,3.4-2.9c1.1-1.4,1.7-2.7,1.7-4c0-1.2-0.4-2.2-1.1-3l-0.1-0.1l-0.1-0.1c-0.8-0.7-1.8-1-2.8-1h-0.1h-0.1
		c-0.9,0-1.7,0.3-2.5,0.7c0.1-0.5,0.2-1.1,0.3-1.9c0.2-1.1,0.3-2,0.5-2.9c0-0.2,0.1-0.3,0.1-0.4h1.4c0.1,0,0.1,0,0.1,0
		c1.6,0,2.9-1,3.3-2.5c0.1-0.4,0.3-0.9,0.4-1.6c0.2-0.9,0.3-1.5,0.3-2c0-1.9-1.4-3.2-3.2-3.2h-0.5c0.1-0.4,0.1-0.8,0.1-1.1
		c0.1-1.8-1.2-3.2-3-3.3L277.5,66.1L277.5,66.1z"/>
	<path class="st3" d="M298,106.9c-1.4,0-3.1-0.5-5-1.6l-10.7-6.6c-0.9-0.5-1.3-1.2-1.3-1.9c0-0.4,0.2-0.9,0.6-1.3l0.5-0.7l10.1-12.6
		c-1.2,0.1-2.2,0.2-2.9,0.5c-0.8,0.3-1.5,0.7-1.8,1.1l-0.1,0.1l-0.1,0.1c-0.2,0.1-0.3,0.2-0.4,0.4c-0.3,0.3-0.5,0.6-0.8,0.8
		c-0.6,0.7-1.4,1-2.4,1h0c-1.2,0-1.8-0.5-2.2-1c-0.4-0.6-0.6-1.3-0.6-2.2c0-0.7,0.2-1.6,0.6-2.5c0.3-0.7,0.6-1.6,1-2.5
		c0.4-0.9,0.9-1.8,1.3-2.6c0.4-0.7,0.7-1.3,0.9-1.8c0.2-0.5,0.8-1.5,2.4-1.5l18.2,0c1.2,0,2,0.8,2,2c-0.1,0.7-0.3,1.3-0.8,1.9
		l-11.8,16.6l-0.3,0.4c0,0,0,0,0.1,0.1c0.9,0.7,2.1,1.5,3.6,2.2c1.5,0.8,2.9,1.2,4.2,1.2c0.9,0,1.3-0.1,1.4-0.2
		c0.5-0.2,1-0.3,1.4-0.3c1.5,0.1,2.4,1,2.3,2.5c0,1.8-1,3.7-2.8,5.5c-0.8,0.8-1.8,1.6-2.9,2.1C300.5,106.6,299.2,106.9,298,106.9
		L298,106.9L298,106.9z"/>
	<path class="st5" d="M305.2,73.2c0.4,0,0.7,0.2,0.7,0.7c0,0.4-0.2,0.7-0.5,1.1l-11.9,16.7c-0.1,0.2-0.3,0.4-0.4,0.6
		c-0.1,0.2-0.2,0.4-0.2,0.6c0,0.3,0.2,0.7,0.6,1c1,0.8,2.3,1.7,3.9,2.4c1.6,0.9,3.2,1.3,4.7,1.3c0.9,0,1.5-0.1,1.9-0.3
		c0.4-0.1,0.7-0.2,1-0.2c0.7,0,1.1,0.4,1,1.2c0,1.5-0.8,3-2.4,4.7c-0.7,0.8-1.6,1.4-2.6,1.9c-1,0.5-2,0.8-3.1,0.8
		c-1.2,0-2.6-0.5-4.3-1.5l-10.7-6.6c-0.5-0.3-0.7-0.5-0.6-0.8c0-0.2,0.1-0.4,0.3-0.6c0.2-0.2,0.3-0.4,0.5-0.7L294,81.8
		c0.2-0.1,0.3-0.3,0.3-0.7c0-0.1-0.1-0.3-0.3-0.3c-0.2,0-0.4,0-0.6,0c-2,0-3.6,0.2-4.7,0.6c-1.1,0.4-1.9,0.9-2.4,1.5
		c-0.3,0.2-0.5,0.4-0.6,0.7c-0.2,0.3-0.4,0.5-0.6,0.6c-0.4,0.4-0.9,0.7-1.5,0.7c0,0,0,0-0.1,0c-1,0-1.4-0.6-1.4-1.9
		c0-0.6,0.2-1.2,0.5-2c0.3-0.8,0.6-1.6,1-2.5c0.4-0.9,0.8-1.8,1.2-2.6c0.4-0.8,0.7-1.4,0.9-1.8c0.2-0.5,0.6-0.7,1.2-0.7L305.2,73.2
		 M305.2,70.6h-18.1H287l-0.1,0c-1.6,0.1-2.9,0.9-3.5,2.3c-0.1,0.3-0.3,0.8-0.8,1.6c-0.4,0.9-0.8,1.7-1.3,2.7
		c-0.4,1-0.8,1.9-1.1,2.6c-0.5,1.1-0.7,2.1-0.7,3c0,3.1,2,4.5,4,4.5l0.1,0c1.3,0,2.5-0.5,3.3-1.4c0.3-0.3,0.6-0.6,0.8-0.9l0,0l0,0
		l0,0c0,0,0,0,0.1-0.1l0.2-0.1l0.2-0.2c0.1-0.1,0.2-0.2,0.6-0.4l-7.8,9.8l0,0l0,0l-0.5,0.7c-0.5,0.6-0.8,1.3-0.8,2
		c-0.1,0.8,0.2,2.1,1.9,3.1l10.7,6.6l0,0l0,0c2.1,1.2,3.9,1.8,5.6,1.8h0h0c1.4,0,2.9-0.4,4.2-1.1c1.2-0.6,2.3-1.4,3.3-2.4
		c2.1-2.1,3.1-4.2,3.2-6.4c0.1-2.1-1.4-3.7-3.5-3.8l-0.1,0H305c-0.6,0-1.3,0.1-1.9,0.4c0,0,0,0,0,0c0,0-0.3,0.1-1,0.1
		c-1.1,0-2.3-0.4-3.5-1l-0.1,0l-0.1,0c-1-0.5-1.8-0.9-2.5-1.4l11.4-16c0.6-0.8,0.9-1.6,1-2.4l0-0.1v-0.1
		C308.4,72,307.1,70.6,305.2,70.6L305.2,70.6z"/>
	<path class="st3" d="M312.8,97.5c-8.7-0.1-10.5-5.5-10.5-10c0-4.3,1.6-8,4.8-11.2c3.1-3.2,7.3-4.8,12.7-4.9
		c8.7,0.1,10.5,5.5,10.5,10c0,4.2-1.4,8-4.3,11.1C323.1,95.8,318.7,97.4,312.8,97.5L312.8,97.5C312.8,97.5,312.8,97.5,312.8,97.5z
		 M318.1,78.2c-0.2,0.1-0.4,0.3-0.7,0.9c-0.3,0.4-0.5,1-0.7,1.6c-0.3,0.7-0.5,1.3-0.7,2c-0.9,3.2-1.4,5.8-1.4,7.7c0,0.1,0,0.2,0,0.3
		c0.1,0,0.1-0.1,0.2-0.2c0.2-0.2,0.5-0.5,0.7-1c0.2-0.5,0.5-1.1,0.7-1.8c0.2-0.6,0.4-1.3,0.6-2c0.8-3.4,1.3-5.8,1.3-7.2
		C318.1,78.5,318.1,78.4,318.1,78.2z"/>
	<path class="st5" d="M319.8,72.8c6.2,0.1,9.2,3,9.2,8.7c0,4-1.3,7.4-3.9,10.3c-2.7,3-6.8,4.5-12.2,4.6c-6.2-0.1-9.2-3-9.2-8.7
		c0-3.9,1.5-7.4,4.4-10.3C310.9,74.4,314.8,72.8,319.8,72.8 M314.5,92.1c0.4,0,0.8-0.2,1.2-0.5c0.3-0.3,0.6-0.7,0.9-1.3
		c0.3-0.6,0.5-1.2,0.8-1.9c0.3-0.7,0.5-1.4,0.7-2.1c0.9-3.5,1.3-6,1.3-7.5c0-1.2-0.4-1.9-1.2-1.9c0,0-0.1,0-0.1,0
		c-0.7,0-1.4,0.6-1.9,1.6c-0.3,0.5-0.5,1-0.8,1.7c-0.3,0.7-0.5,1.4-0.7,2.2c-0.9,3.3-1.4,6-1.4,8.1c0,0.4,0.1,0.8,0.3,1.1
		C313.8,91.9,314.1,92.1,314.5,92.1 M319.8,70.2L319.8,70.2c-5.7,0.1-10.3,1.9-13.6,5.3c-3.4,3.4-5.1,7.4-5.1,12
		c-0.1,7.2,4.1,11.2,11.7,11.3l0,0l0,0c6.2-0.1,11-1.9,14.1-5.4c3-3.4,4.6-7.4,4.6-12C331.6,74.3,327.5,70.3,319.8,70.2L319.8,70.2
		L319.8,70.2z"/>
	<path class="st3" d="M349.4,97.5c-1,0-1.8-0.3-2.3-0.8c-0.3-0.3-0.6-0.9-0.6-1.7c0-0.3,0-0.9,0.3-2.5l1.7-8.8
		c0.2-1,0.2-1.3,0.2-1.4c0-0.4,0-0.7-1.1-0.7c-0.7,0-1.4,0.1-2,0.4c-0.6,0.2-0.7,0.6-0.8,0.8l-2.6,12c-0.3,2.1-1.7,2.2-2.1,2.2h-7.6
		c-1.1,0-1.9-0.8-1.9-2c0-0.4,0.1-0.8,0.3-1.4c0.1-0.4,0.2-0.9,0.3-1.5l1.5-10.1c0.2-1.3,0.2-1.8,0.2-2c0-0.1,0-0.1,0-0.2
		c0,0,0,0,0,0c0,0-0.1,0-0.3,0c0,0,0,0,0,0c-0.8,0-1.5-0.1-2-0.3c-1-0.4-1.5-1.2-1.5-2.2c0-0.7,0.3-1.4,0.9-2
		c0.4-0.4,0.9-0.8,1.4-1.2c1.2-0.7,2.5-1.2,4-1.6c3.4-0.8,6-1.2,8.1-1.2c0,0,0,0,0,0c2.1,0,2.8,1.3,2.8,2.4c0,0.2,0,0.5,0,0.8
		c0.3-0.2,0.7-0.5,1-0.7c1.1-0.6,2.2-1.2,3.4-1.7c1.3-0.5,2.6-0.8,4-0.8l0,0c4,0,6.2,2.1,6.3,5.8c0,1.5-0.3,3.4-0.7,5.5
		c-0.4,1.7-0.6,3.2-0.6,4.5c0.1,0,0.1,0,0.2-0.1c0.5-0.2,0.9-0.2,1.4-0.2c1,0.1,2.1,0.7,2.1,2.4c0,1-0.5,1.9-1.5,3
		c-0.8,0.8-1.9,1.7-3.2,2.5C355.9,96.5,352.9,97.4,349.4,97.5L349.4,97.5L349.4,97.5L349.4,97.5z"/>
	<path class="st5" d="M343.6,72.8c0.9,0,1.4,0.4,1.4,1.1c0,0.4-0.1,1-0.2,1.6c-0.2,0.7-0.3,1.2-0.3,1.6c0,0.2,0,0.3,0.2,0.3
		c0.1,0,0.5-0.3,1.1-0.8c0.6-0.4,1.3-1,2.2-1.6c1-0.6,2-1.1,3.1-1.6c1.1-0.5,2.3-0.7,3.5-0.7c0,0,0.1,0,0.1,0c3.2,0,4.8,1.5,4.9,4.6
		c0,1.4-0.3,3.1-0.7,5.2c-0.4,2.1-0.7,3.9-0.7,5.4c0,0.5,0.2,0.7,0.7,0.7c0,0,0.1,0,0.1,0c0.4,0,0.7-0.1,1.1-0.2
		c0.3-0.1,0.7-0.2,1-0.2c0.6,0,0.8,0.4,0.8,1.1c0,0.6-0.4,1.3-1.1,2.1c-0.7,0.8-1.7,1.5-2.9,2.3c-2.5,1.6-5.4,2.4-8.5,2.5
		c-1.1,0-1.6-0.4-1.6-1.2c0-0.4,0.1-1.2,0.3-2.3l1.7-8.8c0.2-0.8,0.2-1.3,0.2-1.6c0-1.4-0.8-2-2.4-2c0,0-0.1,0-0.1,0
		c-0.8,0-1.6,0.2-2.4,0.5c-0.8,0.3-1.3,0.9-1.5,1.6L341,94.6c-0.1,0.8-0.4,1.2-0.9,1.2c0,0,0,0,0,0h-7.6c-0.4,0-0.6-0.2-0.6-0.7
		c0-0.3,0.1-0.6,0.2-1.1c0.1-0.4,0.2-1,0.3-1.6l1.5-10.1c0.2-1,0.3-1.8,0.3-2.2c0-1-0.5-1.5-1.6-1.5c0,0-0.1,0-0.1,0
		c-0.6,0-1.1-0.1-1.5-0.2c-0.4-0.2-0.7-0.5-0.7-1c0-0.4,0.2-0.8,0.5-1.1c0.3-0.4,0.7-0.7,1.2-1c1-0.6,2.3-1.1,3.7-1.5
		c3.2-0.8,5.8-1.2,7.7-1.2C343.6,72.8,343.6,72.8,343.6,72.8 M343.6,70.2l-0.1,0c-2.2,0-4.9,0.4-8.3,1.3c-1.7,0.5-3.1,1-4.4,1.7l0,0
		l0,0c-0.7,0.4-1.3,0.9-1.7,1.4c-0.8,0.8-1.2,1.8-1.2,2.9c0,1.5,0.9,2.8,2.3,3.4l0,0l0,0c0.4,0.1,0.8,0.2,1.3,0.3
		c0,0.2-0.1,0.4-0.1,0.7l-1.5,10.1c-0.1,0.5-0.2,1-0.2,1.4c-0.2,0.7-0.3,1.2-0.3,1.7c0,1.9,1.3,3.2,3.2,3.2h7.5h0.1
		c1.4,0,3-0.9,3.4-3.3l2.6-11.8c0,0,0,0,0.1,0c0.4-0.2,0.8-0.3,1.2-0.3c0,0.2-0.1,0.3-0.1,0.6l-1.7,8.8c-0.3,1.6-0.4,2.3-0.4,2.7
		c0,1,0.3,1.9,0.9,2.6c0.7,0.8,1.8,1.2,3.2,1.2l0.1,0l0.1,0c3.6-0.1,6.9-1.1,9.8-2.9c1.4-0.8,2.5-1.7,3.4-2.7
		c1.2-1.2,1.8-2.5,1.8-3.8c0-2.1-1.3-3.6-3.3-3.7l-0.1,0h-0.1c0,0-0.1,0-0.1,0c0.1-0.8,0.3-1.7,0.5-2.7c0.5-2.2,0.7-4.1,0.8-5.7
		l0-0.1l0-0.1c-0.1-4.4-2.9-7.1-7.5-7.1h-0.1c-1.6,0-3.1,0.3-4.5,0.9c-1,0.4-2,0.9-2.8,1.4C346.9,71.2,345.7,70.2,343.6,70.2
		L343.6,70.2z"/>
	<path class="st3" d="M371.1,97.5c-1.7,0-3.2-0.3-4.4-0.9c-1.3-0.6-2.2-1.4-3-2.3c-0.7-1-1.2-2-1.5-3.1c-0.3-1-0.4-2.1-0.4-3.1
		c0.1-4.7,2-8.6,5.5-11.8c3.4-3.1,7.5-4.8,12-4.8l0,0c1.4,0,2.6,0.2,3.7,0.5c1.1,0.4,1.9,0.9,2.5,1.5c1.2,1.3,1.8,2.7,1.8,4.1
		c0,1.8-0.7,3.4-2.1,4.7c-1.2,1.2-2.6,2.2-4.1,3c-1.5,0.8-3,1.4-4.2,1.8c-1,0.3-1.7,0.6-2.1,0.7c0.4,0.3,1,0.5,1.9,0.5
		c0.9,0,1.7-0.1,2.3-0.3c0.8-0.2,1.4-0.5,2-0.8c0.6-0.3,1-0.6,1.4-0.8c0.6-0.4,1-0.5,1.4-0.5c0.6,0,1.1,0.3,1.5,0.8l0.1,0.1l0.1,0.1
		c0.2,0.4,0.3,0.8,0.3,1.2c0,1-0.3,2-0.9,3.1c-0.6,1.1-1.5,2.2-2.7,3.1c-1.2,1-2.7,1.7-4.5,2.3C375.8,97.2,373.6,97.5,371.1,97.5
		L371.1,97.5C371.1,97.5,371.1,97.5,371.1,97.5z M376.8,78.3c-0.2,0.1-0.4,0.2-0.6,0.3c-0.4,0.3-0.9,0.8-1.3,1.4
		c-0.5,0.7-0.9,1.4-1.1,2c0,0,0.1-0.1,0.1-0.1c0.6-0.4,1-0.8,1.5-1.3C376.2,79.8,376.7,79,376.8,78.3z"/>
	<path class="st5" d="M379.3,72.8c1.3,0,2.4,0.1,3.2,0.4c0.8,0.3,1.5,0.7,2,1.2c1,1,1.4,2.1,1.4,3.1c0,1.5-0.6,2.7-1.7,3.8
		c-1.1,1.1-2.4,2-3.8,2.8c-1.5,0.7-2.8,1.3-4,1.7c-1.2,0.4-2,0.7-2.3,0.8c-0.8,0.2-1.2,0.4-1.2,0.7c0,0.4,0.3,0.9,1,1.4
		c0.6,0.6,1.5,0.9,2.8,0.9c1,0,2-0.1,2.8-0.4c0.8-0.2,1.5-0.5,2.1-0.8c0.6-0.3,1.1-0.6,1.5-0.8c0.4-0.2,0.6-0.3,0.8-0.3
		c0.2,0,0.3,0.1,0.5,0.3c0.1,0.2,0.1,0.4,0.1,0.6c0,0.8-0.2,1.6-0.7,2.5c-0.5,0.9-1.3,1.9-2.4,2.7c-1.1,0.9-2.4,1.6-4.1,2.1
		c-1.7,0.5-3.7,0.8-6,0.9c-1.6,0-2.9-0.3-3.9-0.8c-1.1-0.5-1.9-1.1-2.5-1.9c-0.6-0.8-1-1.7-1.3-2.6c-0.3-0.9-0.4-1.9-0.4-2.8
		c0.1-4.3,1.8-7.9,5.1-10.9C371.3,74.3,375.1,72.8,379.3,72.8 M372.9,83.6c0.6,0,1.2-0.2,1.8-0.7c0.6-0.4,1.2-0.9,1.7-1.5
		c1.2-1.3,1.7-2.5,1.8-3.6c0-0.2-0.1-0.5-0.2-0.7c-0.2-0.2-0.5-0.3-0.9-0.3c-0.6,0-1.1,0.2-1.6,0.6c-0.6,0.4-1.1,1-1.6,1.7
		c-1,1.4-1.5,2.7-1.6,3.7C372.3,83.4,372.5,83.6,372.9,83.6 M379.3,70.2L379.3,70.2L379.3,70.2c-4.9,0.1-9.3,1.8-12.9,5.2
		c-3.8,3.4-5.8,7.7-5.9,12.7c0,1.2,0.2,2.4,0.5,3.5c0.3,1.2,0.9,2.4,1.7,3.5l0,0l0,0c0.8,1.1,2,2,3.4,2.7c1.4,0.6,3.1,1,5,1l0,0h0
		c2.6,0,4.9-0.4,6.8-1c2-0.6,3.6-1.5,4.9-2.5c1.3-1.1,2.3-2.2,3-3.5l0,0l0,0c0.7-1.3,1-2.5,1-3.7c0-0.6-0.1-1.2-0.4-1.8l-0.1-0.2
		l-0.1-0.2c-0.5-0.6-1.2-1.1-1.9-1.2c0.6-0.5,1.2-1,1.7-1.5c1.5-1.5,2.4-3.4,2.4-5.6c0-1.7-0.7-3.4-2.1-5l0,0l0,0
		c-0.8-0.8-1.8-1.4-3-1.8l0,0l0,0C382.2,70.4,380.9,70.2,379.3,70.2L379.3,70.2z"/>
</g>
</svg>
